<?xml version="1.0" encoding="UTF-8"?>
<svg xmlns="http://www.w3.org/2000/svg" xmlns:xlink="http://www.w3.org/1999/xlink" width="96px" height="96px" viewBox="0 0 96 96" version="1.1">
<g id="surface1">
<path style=" stroke:none;fill-rule:nonzero;fill:rgb(0%,0%,0%);fill-opacity:1;" d="M 52 30 C 52 32.210938 50.210938 34 48 34 C 45.789062 34 44 32.210938 44 30 C 44 27.789062 45.789062 26 48 26 C 50.210938 26 52 27.789062 52 30 Z M 40 45 C 40 43.34375 41.34375 42 43 42 L 49 42 C 50.65625 42 52 43.34375 52 45 L 52 62 L 55 62 C 56.65625 62 58 63.34375 58 65 C 58 66.65625 56.65625 68 55 68 L 43 68 C 41.34375 68 40 66.65625 40 65 C 40 63.34375 41.34375 62 43 62 L 46 62 L 46 48 L 43 48 C 41.34375 48 40 46.65625 40 45 Z M 40 45 "/>
<path style=" stroke:none;fill-rule:nonzero;fill:rgb(0%,0%,0%);fill-opacity:1;" d="M 48 4 C 72.300781 4 92 23.699219 92 48 C 92 72.300781 72.300781 92 48 92 C 23.699219 92 4 72.300781 4 48 C 4 23.699219 23.699219 4 48 4 Z M 10 48 C 10 68.988281 27.011719 86 48 86 C 68.988281 86 86 68.988281 86 48 C 86 27.011719 68.988281 10 48 10 C 27.011719 10 10 27.011719 10 48 Z M 10 48 "/>
</g>
</svg>
