<svg data-name="Layer 1" xmlns="http://www.w3.org/2000/svg" width="819.327" height="610.284"><circle cx="278.882" cy="364.626" r="64.081" fill="#e5e5e5"/><path d="M421.903 466.684a64.086 64.086 0 0 0 106.778 67.82 64.086 64.086 0 1 1-106.778-67.82z" transform="translate(-190.337 -144.858)" opacity=".2" style="isolation:isolate"/><path fill="#cbcbcb" d="M279.058 364.626h.176l3.169 181.679h-6.69l3.345-181.679z"/><circle cx="390.528" cy="261.075" r="77.184" fill="#e5e5e5"/><path d="M637.855 354.38a77.19 77.19 0 0 1-128.612 81.69 77.19 77.19 0 1 0 128.612-81.69z" transform="translate(-190.337 -144.858)" opacity=".2" style="isolation:isolate"/><path fill="#cbcbcb" d="M390.316 261.075h-.212l-3.817 218.83h8.058l-4.029-218.83zM247.244 188.776l10.48-8.382c-8.141-.898-11.486 3.542-12.855 7.057-6.36-2.641-13.285.82-13.285.82l20.968 7.612a15.867 15.867 0 0 0-5.308-7.107zM220.827 116.449l10.48-8.382c-8.141-.898-11.486 3.542-12.855 7.056-6.36-2.64-13.285.82-13.285.82l20.968 7.613a15.867 15.867 0 0 0-5.308-7.107zM369.285 163.211l10.48-8.382c-8.141-.898-11.486 3.542-12.855 7.057-6.36-2.641-13.284.82-13.284.82l20.968 7.612a15.867 15.867 0 0 0-5.309-7.107zM358.93 479.57s.4-8.402 8.621-7.426M414.77 479.57s.401-8.402 8.622-7.426M398.511 479.57s.401-8.402 8.622-7.426M343.972 479.57s-.401-8.402-8.621-7.426M378.813 480.15s-.401-8.402-8.622-7.425M250.93 545.57s.4-8.402 8.621-7.426M306.77 545.57s.401-8.402 8.622-7.426M290.511 545.57s.401-8.402 8.622-7.426M235.972 545.57s-.401-8.402-8.621-7.426M270.813 546.15s-.401-8.402-8.622-7.425"/><path fill="#3f3d56" d="M567.182 151.705h107.456v9.575H567.182zM567.182 186.979h107.456v9.575H567.182zM567.182 218.578h107.456v9.575H567.182z"/><path d="M526.764 156.493a12.493 12.493 0 1 1 12.493 12.493 12.507 12.507 0 0 1-12.493-12.493zM526.764 191.767a12.493 12.493 0 1 1 12.493 12.492 12.507 12.507 0 0 1-12.493-12.492zM526.764 223.366a12.493 12.493 0 1 1 12.493 12.493 12.507 12.507 0 0 1-12.493-12.493z" fill="#ec6f18"/><path fill="#3f3d56" d="m421.459 240.592-1.579-1.226 40.449-52.082h52.901v2h-51.922l-39.849 51.308zM0 265.705h107.456v9.575H0zM0 300.979h107.456v9.575H0zM0 332.578h107.456v9.575H0z"/><path d="M135.38 282.986a12.493 12.493 0 1 1 12.494-12.493 12.493 12.493 0 0 1-12.493 12.493zM135.38 318.26a12.493 12.493 0 1 1 12.494-12.493 12.493 12.493 0 0 1-12.493 12.492zM135.38 349.859a12.493 12.493 0 1 1 12.494-12.493 12.493 12.493 0 0 1-12.493 12.493z" fill="#ec6f18"/><path fill="#3f3d56" d="m253.179 354.592-39.85-51.308h-51.921v-2h52.9l.3.387 40.15 51.695-1.579 1.226zM373.182 7.705h107.456v9.575H373.182zM373.182 42.979h107.456v9.575H373.182zM373.182 74.578h107.456v9.575H373.182z"/><path d="M332.764 12.493a12.493 12.493 0 1 1 12.493 12.493 12.507 12.507 0 0 1-12.493-12.493zM332.764 47.767a12.493 12.493 0 1 1 12.493 12.492 12.507 12.507 0 0 1-12.493-12.492zM332.764 79.366a12.493 12.493 0 1 1 12.493 12.493 12.507 12.507 0 0 1-12.493-12.493z" fill="#ec6f18"/><path fill="#3f3d56" d="m227.459 96.592-1.579-1.226 40.449-52.082h52.901v2h-51.922l-39.849 51.308z"/><path fill="#ffb7b7" d="M757.434 603.319h-6.749l-3.211-26.035h9.962l-.002 26.035z"/><path d="M759.156 609.862h-21.764v-.276a8.472 8.472 0 0 1 8.47-8.471H759.157z" fill="#2f2e41"/><path fill="#ffb7b7" d="M728.434 603.319h-6.749l-3.211-26.035h9.962l-.002 26.035z"/><path d="M730.156 609.862h-21.764v-.276a8.472 8.472 0 0 1 8.47-8.471H730.157zM713.069 432.511l-9.146 14.544 15.352 146.758 16.044.971 3.374-126.752 5.626 67.752-2.223 59 16.518.801 9.815-85.6 7.39-67.701-14.5-13.5-48.25 3.727z" fill="#2f2e41"/><path d="m755.819 321.284-25 1-23.166 114.283s37.654 18.685 52.91 1.701l9.17-6.718z" fill="#ec6f18"/><path d="m755.819 321.284 22 12.821-8.128 53.679 7.127 54.731-23.148-3.772s-4.739-50.96-1.663-66.96 3.812-50.5 3.812-50.5zM730.819 322.284l-26.325 13.511 2.005 59.448-13.586 45.04s27.09 8.67 31.748-4.915 6.158-113.084 6.158-113.084z" fill="#3f3d56"/><path d="M766.37 456.06a6.681 6.681 0 0 0 2.47-9.943l7.944-13.037-6.745-6.76-10.96 18.568a6.717 6.717 0 0 0 7.292 11.172z" fill="#ffb7b7"/><path d="m766.401 341.417 10.489-8.312s9.918 8.118 9.673 15.898 2.725 49.228 2.725 49.228l-16.367 49.264-12.189-9.752 14.278-38.46-11.251-32.817z" fill="#3f3d56"/><path d="M698.594 458.381a6.681 6.681 0 0 1-1.045-10.191l-6.03-14.026 7.63-5.743 8.237 19.927a6.717 6.717 0 0 1-8.792 10.033z" fill="#ffb7b7"/><path d="m714.706 344.877-9.214-9.706s-10.962 6.64-11.815 14.377-9.63 48.353-9.63 48.353l9.268 51.078 13.44-7.938-8.72-40.087 15.76-30.906z" fill="#3f3d56"/><circle cx="744.116" cy="296.738" r="17.076" fill="#ffb7b7"/><path d="M739.987 281.576c-1.724-.304-3.43.48-5.029 1.196s-3.383 1.394-5.057.881a5.184 5.184 0 0 1-3.178-3.523 15.315 15.315 0 0 1-.43-4.896l1.818 1.05-1.242-2.087 17.72-1.959c5.361-.592 11.373-1.005 15.543 2.416a15.495 15.495 0 0 1 4.47 7.17c3.537 10.829 7.553 26.608-10.602 29.827-2.531-.7 1.596-10.016 1.554-12.64s-1.487-5.577-4.081-5.98l-1.9 2.642c1.216-1.69-3.1-7.182-4.174-8.254a17.076 17.076 0 0 1-2.598-2.754c-.857-1.314-.867-2.745-2.814-3.089z" fill="#2f2e41"/><path d="M818.327 610.284h-179a1 1 0 0 1 0-2h179a1 1 0 0 1 0 2z" fill="#cbcbcb"/></svg>