<svg data-name="Layer 1" xmlns="http://www.w3.org/2000/svg" width="996" height="674.005"><circle cx="138.925" cy="525.449" r="138.925" fill="#f2f2f2"/><path d="M306.979 587.07a293.535 293.535 0 1 1 207.56-85.975 291.613 291.613 0 0 1-207.56 85.974zm0-584.83c-160.62 0-291.294 130.674-291.294 291.294s130.674 291.294 291.294 291.294 291.293-130.674 291.293-291.294S467.598 2.241 306.98 2.241z" fill="#2f2e41"/><path fill="#ec6f18" d="m459.908 386.443-.033.017-144.674 80.559-158.422-79.211-2.73-1.365 8.222-164.44L305.334 120.05l1.579.987 148.062 92.744 4.933 172.662z"/><path opacity=".3" d="m459.875 386.46-144.674 80.559-158.422-79.211 140.333-98.384 162.763 97.036z"/><path opacity=".1" d="m459.908 386.443-162.796-97.019 9.801-168.387 148.062 92.744 4.933 172.662z"/><path fill="#f2f2f2" d="m160.165 272.745-.804-1.138L304.021 169.5l152.813 95.809-.74 1.181-152.028-95.317-143.901 101.572z"/><path fill="#f2f2f2" d="m157.361 328.61-.782-1.152 143.926-97.715.377.214 156.081 88.46-.688 1.212-155.704-88.247-143.21 97.228z"/><path fill="#f2f2f2" d="m212.276 415.965-.734-1.184L356.595 324.9V152.594h1.393v173.082l-145.712 90.289z"/><path fill="#f2f2f2" d="m269.209 444.428-.74-1.18 139.669-87.603V184.879h1.393v171.537l-140.322 88.012z"/><path fill="#f2f2f2" d="M407.612 415.982 245.176 325.73l.023-.434 8.551-169.015 1.391.071-8.529 168.581 161.677 89.831-.677 1.218z"/><path fill="#f2f2f2" d="m356.507 444.455-160.612-84.167.025-.447 9.468-169.099 1.391.078-9.442 168.651 159.817 83.75-.647 1.234z"/><circle cx="487.357" cy="63.861" r="56.018" fill="#3f3d56"/><path fill="#2f2e41" d="M32.49 662.133H996v2.241H32.49z"/><path d="m884.137 360.814 12.805 35.074s-13.362 40.083 0 41.197 15.031-38.414 15.031-38.414l-7.237-42.31z" fill="#ffb9b9"/><path d="m890.261 246.13 9.464 9.465v45.094s5.567 8.35 4.454 10.578-2.227 2.226-1.113 3.897 2.226 2.783 1.113 3.897a4.175 4.175 0 0 0 0 5.01c1.113 1.113 3.34 2.784 1.67 4.454s-3.897.556-1.67 6.68 6.124 7.794 5.01 10.021-1.113 7.794-1.113 7.794l-23.939 3.34-5.01-62.909z" fill="#d0cde1"/><path fill="#3f3d56" d="m909.189 352.464-27.836 1.113 1.114 11.691 24.496-4.454 2.226-8.35z"/><path fill="#ffb9b9" d="m832.641 187.953-3.341 33.404 33.96 5.01 2.505-19.207 2.506-19.207h-35.63z"/><path opacity=".1" d="m832.641 187.953-3.341 33.404 33.96 5.01 2.505-19.207 2.506-19.207h-35.63z"/><path d="m758.875 346.897 18.929 40.64s3.34 18.928 8.35 19.485 10.022-19.485 10.022-19.485l-6.681-10.578-7.794-30.063z" fill="#ffb9b9"/><path d="m798.402 383.64-15.588 24.496S767.783 641.4 770.01 639.73s9.464-2.227 12.248-6.68 20.041 0 20.041 0l10.021-10.578v-8.35c0-1.67 20.042-129.16 20.042-129.16v32.29s-6.124 118.581 3.897 117.468 30.62-7.794 30.62-7.794S896.385 405.352 887.477 397s-12.804-27.28-12.804-27.28z" fill="#2f2e41"/><circle cx="851.291" cy="172.087" r="26.722" fill="#ffb9b9"/><path d="m791.722 226.645-3.897-2.227s-17.258 11.692-22.826 37.857-9.464 32.847-9.464 32.847-5.567 1.113-1.67 5.01 3.897 3.34.557 5.567-5.567-2.227-3.34 2.227 5.01 3.34 2.783 6.124-6.124 2.784-3.897 5.01-2.227 7.238.557 9.465 3.897 2.783 3.897 6.68a19.714 19.714 0 0 0 1.113 6.681h28.95s-5.568-10.578-3.897-12.804 2.226-4.454 1.113-5.568-4.454 1.114-1.113-1.67 4.453-1.113 3.34-4.454-3.34-1.67-1.114-3.34 3.897-1.113 2.784-2.783-3.34-1.67-1.113-2.784 3.897 0 3.34-2.784-1.114-1.67 0-2.783 12.804-38.97 12.804-40.084-8.907-36.187-8.907-36.187z" fill="#d0cde1"/><path fill="#3f3d56" d="m786.155 339.659-35.074 2.227 8.908 8.351 24.496.557 1.67-11.135zM796.176 381.413l-7.238 13.361s21.712 2.784 29.506 5.567 27.836 6.681 27.836 6.681l5.01-19.485zM859.641 387.537l6.124 18.372 24.496-5.011-2.784-17.258-27.836 3.897z"/><path d="M869.662 207.717s-1.67-1.114-5.567 1.113-16.701 3.34-22.825-3.34-10.578-12.248-12.248-11.134-2.784 13.918-2.784 13.918l-5.567 4.453-32.846 11.691 2.783 75.157 5.01 17.259s-3.896 13.361 1.114 21.155-2.783 10.578-2.783 10.578-1.67 2.227-.557 7.794-1.113 26.166-1.113 26.166 47.32 21.155 96.869 2.783l-5.568-21.155-2.783-47.321s2.783-7.794 2.227-11.135 16.701-50.104 16.701-50.104-2.783-23.382-17.258-28.393-16.702-10.02-16.702-10.02 6.681-7.238 3.897-9.465z" fill="#d0cde1"/><path d="M824.383 175.51s-2.775-4.162-1.708-8.645a26.202 26.202 0 0 0 .747-7.791 77.116 77.116 0 0 1 4.483-11.314c2.241-4.055 1.174-5.763 8.218-7.044s4.163-10.46 22.734-.534a5.446 5.446 0 0 0 5.657 2.135c3.842-.747 5.23 4.59 5.23 4.59s2.56-1.495 3.521.64 7.81-1.281 7.81 13.127-7.794 27.28-7.794 27.28.571-24.238-12.13-26.692-26.362-9.606-29.67-.427a69.972 69.972 0 0 1-7.098 14.675z" fill="#2f2e41"/><ellipse cx="873.559" cy="177.933" rx="2.505" ry="3.34" fill="#ffb9b9"/><path d="m859.363 624.953 3.916 11.746s0 11.746 3.915 17.619 7.83 18.598-7.83 19.577S836.85 669 836.85 669s2.937-7.83 0-10.767 0-8.81 0-8.81l2.937-23.491zM783.093 624.953l-3.915 11.746s0 11.746-3.915 17.619-7.83 18.598 7.83 19.577S805.606 669 805.606 669s-2.936-7.83 0-10.767 0-8.81 0-8.81l-2.936-23.491z" fill="#2f2e41"/></svg>