<?xml version="1.0" encoding="UTF-8"?>
<svg xmlns="http://www.w3.org/2000/svg" xmlns:xlink="http://www.w3.org/1999/xlink" width="96px" height="96px" viewBox="0 0 96 96" version="1.1">
<g id="surface1">
<path style=" stroke:none;fill-rule:nonzero;fill:rgb(0%,0%,0%);fill-opacity:1;" d="M 44.121094 10.359375 C 46.359375 8.464844 49.640625 8.464844 51.878906 10.359375 L 81.878906 35.8125 C 83.222656 36.953125 84 38.625 84 40.386719 L 84 78 C 84 81.3125 81.3125 84 78 84 L 55 84 C 53.34375 84 52 82.65625 52 81 L 52 56 L 44 56 L 44 81 C 44 82.65625 42.65625 84 41 84 L 18 84 C 14.6875 84 12 81.3125 12 78 L 12 40.386719 C 12 38.628906 12.777344 36.953125 14.121094 35.8125 Z M 48 14.9375 L 18 40.386719 L 18 78 L 38 78 L 38 53 C 38 51.34375 39.34375 50 41 50 L 55 50 C 56.65625 50 58 51.34375 58 53 L 58 78 L 78 78 L 78 40.386719 Z M 48 14.9375 "/>
</g>
</svg>
