<svg id="svg" version="1.1" xmlns="http://www.w3.org/2000/svg" xmlns:xlink="http://www.w3.org/1999/xlink" width="400" height="666.8000000000001" viewBox="0, 0, 400,666.8000000000001"><g id="svgg"><path id="path0" d="M199.600 234.563 C 199.600 423.805,199.698 469.248,200.107 469.091 C 201.865 468.416,399.392 343.488,399.357 343.072 C 399.334 342.789,380.776 310.706,358.116 271.778 C 335.457 232.850,290.680 155.910,258.612 100.800 C 226.544 45.690,200.147 0.429,199.953 0.220 C 199.749 0.000,199.600 98.855,199.600 234.563 M289.404 213.032 C 321.629 268.392,347.878 313.875,347.735 314.105 C 347.593 314.335,347.656 314.412,347.876 314.276 C 348.240 314.052,359.895 333.492,359.549 333.745 C 357.844 334.994,341.998 344.690,341.994 344.487 C 341.991 344.329,341.856 344.394,341.694 344.632 C 341.532 344.869,317.730 359.975,288.800 378.199 C 259.870 396.423,234.716 412.290,232.901 413.457 L 229.602 415.581 229.501 348.690 C 229.285 205.657,229.576 110.093,230.224 111.289 C 230.549 111.888,257.180 157.673,289.404 213.032 " stroke="none" fill="#fc9b94" fill-rule="evenodd"></path><path id="path1" d="M159.218 69.566 C 137.119 107.535,92.318 184.500,59.660 240.600 C 27.003 296.700,0.265 342.814,0.242 343.075 C 0.219 343.336,45.020 371.804,99.800 406.335 L 199.400 469.121 199.501 351.960 C 199.556 287.522,199.556 182.090,199.501 117.666 L 199.400 0.533 159.218 69.566 M169.999 262.995 L 169.999 415.590 167.900 414.254 C 162.296 410.690,58.550 345.349,50.000 339.999 C 44.610 336.626,40.133 333.815,40.051 333.751 C 39.898 333.633,49.042 317.652,50.607 315.302 C 51.082 314.588,51.572 314.105,51.695 314.229 C 51.819 314.352,51.893 314.187,51.860 313.862 C 51.812 313.385,169.556 110.439,169.899 110.409 C 169.954 110.404,169.999 179.068,169.999 262.995 " stroke="none" fill="#fbec4c" fill-rule="evenodd"></path><path id="path2" d="M398.200 378.923 C 397.760 379.184,396.827 379.803,396.127 380.299 C 395.426 380.795,394.723 381.200,394.564 381.200 C 394.406 381.200,393.686 381.650,392.964 382.200 C 392.243 382.750,391.461 383.200,391.227 383.200 C 390.992 383.200,390.800 383.359,390.800 383.553 C 390.800 383.748,390.485 384.026,390.100 384.171 C 388.785 384.667,387.600 385.389,387.600 385.695 C 387.600 385.863,387.408 386.000,387.173 386.000 C 386.939 386.000,386.157 386.450,385.436 387.000 C 384.714 387.550,383.978 388.000,383.800 388.000 C 383.622 388.000,382.886 388.450,382.164 389.000 C 381.443 389.550,380.723 390.000,380.564 390.000 C 380.406 390.000,379.686 390.450,378.964 391.000 C 378.243 391.550,377.461 392.000,377.227 392.000 C 376.992 392.000,376.800 392.159,376.800 392.353 C 376.800 392.548,376.485 392.812,376.100 392.942 C 375.420 393.170,374.004 393.996,373.600 394.400 C 373.196 394.804,371.780 395.630,371.100 395.858 C 370.715 395.988,370.400 396.252,370.400 396.447 C 370.400 396.641,370.192 396.800,369.938 396.800 C 369.684 396.800,368.886 397.250,368.164 397.800 C 367.443 398.350,366.723 398.800,366.564 398.800 C 366.406 398.800,365.686 399.250,364.964 399.800 C 364.243 400.350,363.461 400.800,363.227 400.800 C 362.992 400.800,362.800 400.959,362.800 401.153 C 362.800 401.348,362.485 401.612,362.100 401.742 C 361.420 401.970,360.004 402.796,359.600 403.200 C 359.303 403.497,357.887 404.366,357.200 404.673 C 356.870 404.821,356.510 405.046,356.400 405.175 C 356.290 405.303,355.525 405.762,354.700 406.195 C 353.875 406.628,353.200 407.121,353.200 407.291 C 353.200 407.461,352.992 407.600,352.738 407.600 C 352.484 407.600,351.686 408.050,350.964 408.600 C 350.243 409.150,349.461 409.600,349.227 409.600 C 348.992 409.600,348.800 409.759,348.800 409.953 C 348.800 410.148,348.485 410.412,348.100 410.542 C 347.420 410.770,346.004 411.596,345.600 412.000 C 345.303 412.297,343.887 413.166,343.200 413.473 C 342.870 413.621,342.510 413.846,342.400 413.975 C 342.290 414.103,341.525 414.562,340.700 414.995 C 339.875 415.428,339.200 415.921,339.200 416.091 C 339.200 416.261,338.992 416.400,338.738 416.400 C 338.484 416.400,337.686 416.850,336.964 417.400 C 336.243 417.950,335.523 418.400,335.364 418.400 C 335.206 418.400,334.486 418.850,333.764 419.400 C 333.043 419.950,332.261 420.400,332.027 420.400 C 331.792 420.400,331.600 420.559,331.600 420.753 C 331.600 420.948,331.285 421.212,330.900 421.342 C 330.220 421.570,328.804 422.396,328.400 422.800 C 327.996 423.204,326.580 424.030,325.900 424.258 C 325.515 424.388,325.200 424.652,325.200 424.847 C 325.200 425.041,324.992 425.200,324.738 425.200 C 324.484 425.200,323.686 425.650,322.964 426.200 C 322.243 426.750,321.523 427.200,321.364 427.200 C 321.206 427.200,320.486 427.650,319.764 428.200 C 319.043 428.750,318.261 429.200,318.027 429.200 C 317.792 429.200,317.600 429.359,317.600 429.553 C 317.600 429.748,317.285 430.012,316.900 430.142 C 316.220 430.370,314.804 431.196,314.400 431.600 C 314.103 431.897,312.687 432.766,312.000 433.073 C 311.670 433.221,311.310 433.446,311.200 433.575 C 311.090 433.703,310.325 434.162,309.500 434.595 C 308.675 435.028,308.000 435.521,308.000 435.691 C 308.000 435.861,307.792 436.000,307.538 436.000 C 307.284 436.000,306.486 436.450,305.764 437.000 C 305.043 437.550,304.261 438.000,304.027 438.000 C 303.792 438.000,303.600 438.159,303.600 438.353 C 303.600 438.548,303.285 438.812,302.900 438.942 C 302.220 439.170,300.804 439.996,300.400 440.400 C 299.996 440.804,298.580 441.630,297.900 441.858 C 297.515 441.988,297.200 442.252,297.200 442.447 C 297.200 442.641,297.008 442.800,296.773 442.800 C 296.539 442.800,295.757 443.250,295.036 443.800 C 294.314 444.350,293.578 444.800,293.400 444.800 C 293.222 444.800,292.486 445.250,291.764 445.800 C 291.043 446.350,290.323 446.800,290.164 446.800 C 290.006 446.800,289.286 447.250,288.564 447.800 C 287.843 448.350,287.061 448.800,286.827 448.800 C 286.592 448.800,286.400 448.959,286.400 449.153 C 286.400 449.348,286.085 449.612,285.700 449.742 C 285.020 449.970,283.604 450.796,283.200 451.200 C 282.796 451.604,281.380 452.430,280.700 452.658 C 280.315 452.788,280.000 453.052,280.000 453.247 C 280.000 453.441,279.792 453.600,279.538 453.600 C 279.284 453.600,278.486 454.050,277.764 454.600 C 277.043 455.150,276.323 455.600,276.164 455.600 C 276.006 455.600,275.286 456.050,274.564 456.600 C 273.843 457.150,273.061 457.600,272.827 457.600 C 272.592 457.600,272.400 457.759,272.400 457.953 C 272.400 458.148,272.085 458.412,271.700 458.542 C 271.020 458.770,269.604 459.596,269.200 460.000 C 268.796 460.404,267.380 461.230,266.700 461.458 C 266.315 461.588,266.000 461.852,266.000 462.047 C 266.000 462.241,265.792 462.400,265.538 462.400 C 265.284 462.400,264.486 462.850,263.764 463.400 C 263.043 463.950,262.323 464.400,262.164 464.400 C 262.006 464.400,261.286 464.850,260.564 465.400 C 259.843 465.950,259.061 466.400,258.827 466.400 C 258.592 466.400,258.400 466.559,258.400 466.753 C 258.400 466.948,258.085 467.212,257.700 467.342 C 257.020 467.570,255.604 468.396,255.200 468.800 C 254.903 469.097,253.487 469.966,252.800 470.273 C 252.470 470.421,252.110 470.645,252.000 470.771 C 251.656 471.165,250.231 472.013,249.500 472.258 C 249.115 472.388,248.800 472.652,248.800 472.847 C 248.800 473.041,248.592 473.200,248.338 473.200 C 248.084 473.200,247.286 473.650,246.564 474.200 C 245.843 474.750,245.123 475.200,244.964 475.200 C 244.806 475.200,244.086 475.650,243.364 476.200 C 242.643 476.750,241.861 477.200,241.627 477.200 C 241.392 477.200,241.200 477.359,241.200 477.553 C 241.200 477.748,240.885 478.012,240.500 478.142 C 239.820 478.370,238.404 479.196,238.000 479.600 C 237.596 480.004,236.180 480.830,235.500 481.058 C 235.115 481.188,234.800 481.452,234.800 481.647 C 234.800 481.841,234.592 482.000,234.338 482.000 C 234.084 482.000,233.286 482.450,232.564 483.000 C 231.843 483.550,231.123 484.000,230.964 484.000 C 230.806 484.000,230.086 484.450,229.364 485.000 C 228.643 485.550,227.861 486.000,227.627 486.000 C 227.392 486.000,227.200 486.159,227.200 486.353 C 227.200 486.548,226.885 486.812,226.500 486.942 C 225.820 487.170,224.404 487.996,224.000 488.400 C 223.596 488.804,222.180 489.630,221.500 489.858 C 221.115 489.988,220.800 490.252,220.800 490.447 C 220.800 490.641,220.592 490.800,220.338 490.800 C 220.084 490.800,219.286 491.250,218.564 491.800 C 217.843 492.350,217.123 492.800,216.964 492.800 C 216.806 492.800,216.086 493.250,215.364 493.800 C 214.643 494.350,213.861 494.800,213.627 494.800 C 213.392 494.800,213.200 494.959,213.200 495.153 C 213.200 495.348,212.885 495.612,212.500 495.742 C 211.820 495.970,210.404 496.796,210.000 497.200 C 209.596 497.604,208.180 498.430,207.500 498.658 C 207.115 498.788,206.800 499.052,206.800 499.247 C 206.800 499.441,206.608 499.600,206.373 499.600 C 206.139 499.600,205.357 500.050,204.636 500.600 C 203.914 501.150,203.178 501.600,203.000 501.600 C 202.822 501.600,202.099 502.040,201.394 502.577 L 200.113 503.554 200.105 584.977 C 200.101 629.760,200.218 666.400,200.365 666.400 C 200.512 666.400,201.158 665.500,201.800 664.400 C 202.442 663.300,203.110 662.400,203.284 662.400 C 203.458 662.400,203.600 662.130,203.600 661.800 C 203.600 661.470,203.742 661.200,203.916 661.200 C 204.090 661.200,204.758 660.300,205.400 659.200 C 206.042 658.100,206.710 657.200,206.884 657.200 C 207.058 657.200,207.200 656.930,207.200 656.600 C 207.200 656.270,207.343 656.000,207.517 656.000 C 207.692 656.000,208.367 655.104,209.017 654.008 C 209.668 652.912,210.335 652.012,210.500 652.008 C 210.665 652.004,210.800 651.730,210.800 651.400 C 210.800 651.070,210.943 650.800,211.117 650.800 C 211.292 650.800,211.967 649.904,212.617 648.808 C 213.268 647.712,213.935 646.812,214.100 646.808 C 214.265 646.804,214.400 646.530,214.400 646.200 C 214.400 645.870,214.543 645.600,214.717 645.600 C 214.892 645.600,215.567 644.704,216.217 643.608 C 216.868 642.512,217.535 641.612,217.700 641.608 C 217.865 641.604,218.000 641.330,218.000 641.000 C 218.000 640.670,218.143 640.400,218.317 640.400 C 218.492 640.400,219.167 639.504,219.817 638.408 C 220.468 637.312,221.135 636.412,221.300 636.408 C 221.465 636.404,221.600 636.130,221.600 635.800 C 221.600 635.470,221.743 635.200,221.917 635.200 C 222.092 635.200,222.767 634.304,223.417 633.208 C 224.068 632.112,224.735 631.212,224.900 631.208 C 225.065 631.204,225.200 630.930,225.200 630.600 C 225.200 630.270,225.343 630.000,225.517 630.000 C 225.692 630.000,226.367 629.104,227.017 628.008 C 227.668 626.912,228.335 626.012,228.500 626.008 C 228.665 626.004,228.800 625.730,228.800 625.400 C 228.800 625.070,228.943 624.800,229.117 624.800 C 229.292 624.800,229.967 623.904,230.617 622.808 C 231.268 621.712,231.935 620.812,232.100 620.808 C 232.265 620.804,232.400 620.530,232.400 620.200 C 232.400 619.870,232.543 619.600,232.717 619.600 C 232.892 619.600,233.567 618.704,234.217 617.608 C 234.868 616.512,235.535 615.612,235.700 615.608 C 235.865 615.604,236.000 615.330,236.000 615.000 C 236.000 614.670,236.143 614.400,236.317 614.400 C 236.492 614.400,237.167 613.504,237.817 612.408 C 238.468 611.312,239.135 610.412,239.300 610.408 C 239.465 610.404,239.600 610.130,239.600 609.800 C 239.600 609.470,239.743 609.200,239.917 609.200 C 240.092 609.200,240.767 608.304,241.417 607.208 C 242.068 606.112,242.735 605.212,242.900 605.208 C 243.065 605.204,243.200 604.930,243.200 604.600 C 243.200 604.270,243.380 604.000,243.600 604.000 C 243.820 604.000,244.000 603.730,244.000 603.400 C 244.000 603.070,244.152 602.800,244.337 602.800 C 244.522 602.800,245.013 602.170,245.428 601.400 C 245.843 600.630,246.321 600.000,246.491 600.000 C 246.661 600.000,246.800 599.730,246.800 599.400 C 246.800 599.070,246.980 598.800,247.200 598.800 C 247.420 598.800,247.600 598.530,247.600 598.200 C 247.600 597.870,247.742 597.600,247.916 597.600 C 248.090 597.600,248.758 596.700,249.400 595.600 C 250.042 594.500,250.710 593.600,250.884 593.600 C 251.058 593.600,251.200 593.330,251.200 593.000 C 251.200 592.670,251.342 592.400,251.516 592.400 C 251.690 592.400,252.358 591.500,253.000 590.400 C 253.642 589.300,254.310 588.400,254.484 588.400 C 254.658 588.400,254.800 588.130,254.800 587.800 C 254.800 587.470,254.942 587.200,255.116 587.200 C 255.290 587.200,255.958 586.300,256.600 585.200 C 257.242 584.100,257.910 583.200,258.084 583.200 C 258.258 583.200,258.400 582.930,258.400 582.600 C 258.400 582.270,258.542 582.000,258.716 582.000 C 258.890 582.000,259.558 581.100,260.200 580.000 C 260.842 578.900,261.510 578.000,261.684 578.000 C 261.858 578.000,262.000 577.730,262.000 577.400 C 262.000 577.070,262.142 576.800,262.316 576.800 C 262.490 576.800,263.158 575.900,263.800 574.800 C 264.442 573.700,265.110 572.800,265.284 572.800 C 265.458 572.800,265.600 572.530,265.600 572.200 C 265.600 571.870,265.742 571.600,265.916 571.600 C 266.090 571.600,266.758 570.700,267.400 569.600 C 268.042 568.500,268.710 567.600,268.884 567.600 C 269.058 567.600,269.200 567.330,269.200 567.000 C 269.200 566.670,269.342 566.400,269.516 566.400 C 269.690 566.400,270.358 565.500,271.000 564.400 C 271.642 563.300,272.310 562.400,272.484 562.400 C 272.658 562.400,272.800 562.130,272.800 561.800 C 272.800 561.470,272.943 561.200,273.117 561.200 C 273.292 561.200,273.967 560.304,274.617 559.208 C 275.268 558.112,275.935 557.212,276.100 557.208 C 276.265 557.204,276.400 556.930,276.400 556.600 C 276.400 556.270,276.543 556.000,276.717 556.000 C 276.892 556.000,277.567 555.104,278.217 554.008 C 278.868 552.912,279.535 552.012,279.700 552.008 C 279.865 552.004,280.000 551.730,280.000 551.400 C 280.000 551.070,280.143 550.800,280.317 550.800 C 280.492 550.800,281.167 549.904,281.817 548.808 C 282.468 547.712,283.135 546.812,283.300 546.808 C 283.465 546.804,283.600 546.530,283.600 546.200 C 283.600 545.870,283.743 545.600,283.917 545.600 C 284.092 545.600,284.767 544.704,285.417 543.608 C 286.068 542.512,286.735 541.612,286.900 541.608 C 287.065 541.604,287.200 541.330,287.200 541.000 C 287.200 540.670,287.343 540.400,287.517 540.400 C 287.692 540.400,288.367 539.504,289.017 538.408 C 289.668 537.312,290.335 536.412,290.500 536.408 C 290.665 536.404,290.800 536.130,290.800 535.800 C 290.800 535.470,290.943 535.200,291.117 535.200 C 291.292 535.200,291.967 534.304,292.617 533.208 C 293.268 532.112,293.935 531.212,294.100 531.208 C 294.265 531.204,294.400 530.930,294.400 530.600 C 294.400 530.270,294.543 530.000,294.717 530.000 C 294.892 530.000,295.567 529.104,296.217 528.008 C 296.868 526.912,297.535 526.012,297.700 526.008 C 297.865 526.004,298.000 525.730,298.000 525.400 C 298.000 525.070,298.180 524.800,298.400 524.800 C 298.620 524.800,298.800 524.530,298.800 524.200 C 298.800 523.870,298.952 523.600,299.137 523.600 C 299.322 523.600,299.813 522.970,300.228 522.200 C 300.643 521.430,301.121 520.800,301.291 520.800 C 301.461 520.800,301.600 520.530,301.600 520.200 C 301.600 519.870,301.743 519.600,301.917 519.600 C 302.092 519.600,302.767 518.704,303.417 517.608 C 304.068 516.512,304.735 515.612,304.900 515.608 C 305.065 515.604,305.200 515.330,305.200 515.000 C 305.200 514.670,305.380 514.400,305.600 514.400 C 305.820 514.400,306.000 514.130,306.000 513.800 C 306.000 513.470,306.152 513.200,306.337 513.200 C 306.522 513.200,307.013 512.570,307.428 511.800 C 307.843 511.030,308.321 510.400,308.491 510.400 C 308.661 510.400,308.800 510.130,308.800 509.800 C 308.800 509.470,308.980 509.200,309.200 509.200 C 309.420 509.200,309.600 508.930,309.600 508.600 C 309.600 508.270,309.742 508.000,309.916 508.000 C 310.090 508.000,310.758 507.100,311.400 506.000 C 312.042 504.900,312.710 504.000,312.884 504.000 C 313.058 504.000,313.200 503.730,313.200 503.400 C 313.200 503.070,313.342 502.800,313.516 502.800 C 313.690 502.800,314.358 501.900,315.000 500.800 C 315.642 499.700,316.310 498.800,316.484 498.800 C 316.658 498.800,316.800 498.530,316.800 498.200 C 316.800 497.870,316.942 497.600,317.116 497.600 C 317.290 497.600,317.958 496.700,318.600 495.600 C 319.242 494.500,319.910 493.600,320.084 493.600 C 320.258 493.600,320.400 493.330,320.400 493.000 C 320.400 492.670,320.542 492.400,320.716 492.400 C 320.890 492.400,321.558 491.500,322.200 490.400 C 322.842 489.300,323.510 488.400,323.684 488.400 C 323.858 488.400,324.000 488.130,324.000 487.800 C 324.000 487.470,324.142 487.200,324.316 487.200 C 324.490 487.200,325.158 486.300,325.800 485.200 C 326.442 484.100,327.110 483.200,327.284 483.200 C 327.458 483.200,327.600 482.930,327.600 482.600 C 327.600 482.270,327.742 482.000,327.916 482.000 C 328.090 482.000,328.758 481.100,329.400 480.000 C 330.042 478.900,330.710 478.000,330.884 478.000 C 331.058 478.000,331.200 477.730,331.200 477.400 C 331.200 477.070,331.342 476.800,331.516 476.800 C 331.690 476.800,332.358 475.900,333.000 474.800 C 333.642 473.700,334.310 472.800,334.484 472.800 C 334.658 472.800,334.800 472.530,334.800 472.200 C 334.800 471.870,334.943 471.600,335.117 471.600 C 335.292 471.600,335.967 470.704,336.617 469.608 C 337.268 468.512,337.935 467.612,338.100 467.608 C 338.265 467.604,338.400 467.330,338.400 467.000 C 338.400 466.670,338.543 466.400,338.717 466.400 C 338.892 466.400,339.567 465.504,340.217 464.408 C 340.868 463.312,341.535 462.412,341.700 462.408 C 341.865 462.404,342.000 462.130,342.000 461.800 C 342.000 461.470,342.143 461.200,342.317 461.200 C 342.492 461.200,343.167 460.304,343.817 459.208 C 344.468 458.112,345.135 457.212,345.300 457.208 C 345.465 457.204,345.600 456.930,345.600 456.600 C 345.600 456.270,345.743 456.000,345.917 456.000 C 346.092 456.000,346.767 455.104,347.417 454.008 C 348.068 452.912,348.735 452.012,348.900 452.008 C 349.065 452.004,349.200 451.730,349.200 451.400 C 349.200 451.070,349.343 450.800,349.517 450.800 C 349.692 450.800,350.367 449.904,351.017 448.808 C 351.668 447.712,352.335 446.812,352.500 446.808 C 352.665 446.804,352.800 446.530,352.800 446.200 C 352.800 445.870,352.943 445.600,353.117 445.600 C 353.292 445.600,353.967 444.704,354.617 443.608 C 355.268 442.512,355.935 441.612,356.100 441.608 C 356.265 441.604,356.400 441.330,356.400 441.000 C 356.400 440.670,356.543 440.400,356.717 440.400 C 356.892 440.400,357.567 439.504,358.217 438.408 C 358.868 437.312,359.535 436.412,359.700 436.408 C 359.865 436.404,360.000 436.130,360.000 435.800 C 360.000 435.470,360.143 435.200,360.317 435.200 C 360.492 435.200,361.167 434.304,361.817 433.208 C 362.468 432.112,363.135 431.212,363.300 431.208 C 363.465 431.204,363.600 430.930,363.600 430.600 C 363.600 430.270,363.743 430.000,363.917 430.000 C 364.092 430.000,364.767 429.104,365.417 428.008 C 366.068 426.912,366.735 426.012,366.900 426.008 C 367.065 426.004,367.200 425.730,367.200 425.400 C 367.200 425.070,367.380 424.800,367.600 424.800 C 367.820 424.800,368.000 424.530,368.000 424.200 C 368.000 423.870,368.152 423.600,368.337 423.600 C 368.522 423.600,369.013 422.970,369.428 422.200 C 369.843 421.430,370.321 420.800,370.491 420.800 C 370.661 420.800,370.800 420.530,370.800 420.200 C 370.800 419.870,370.980 419.600,371.200 419.600 C 371.420 419.600,371.600 419.330,371.600 419.000 C 371.600 418.670,371.742 418.400,371.916 418.400 C 372.090 418.400,372.758 417.500,373.400 416.400 C 374.042 415.300,374.710 414.400,374.884 414.400 C 375.058 414.400,375.200 414.130,375.200 413.800 C 375.200 413.470,375.342 413.200,375.516 413.200 C 375.690 413.200,376.358 412.300,377.000 411.200 C 377.642 410.100,378.310 409.200,378.484 409.200 C 378.658 409.200,378.800 408.930,378.800 408.600 C 378.800 408.270,378.942 408.000,379.116 408.000 C 379.290 408.000,379.958 407.100,380.600 406.000 C 381.242 404.900,381.910 404.000,382.084 404.000 C 382.258 404.000,382.400 403.730,382.400 403.400 C 382.400 403.070,382.542 402.800,382.716 402.800 C 382.890 402.800,383.558 401.900,384.200 400.800 C 384.842 399.700,385.510 398.800,385.684 398.800 C 385.858 398.800,386.000 398.530,386.000 398.200 C 386.000 397.870,386.142 397.600,386.316 397.600 C 386.490 397.600,387.158 396.700,387.800 395.600 C 388.442 394.500,389.110 393.600,389.284 393.600 C 389.458 393.600,389.600 393.330,389.600 393.000 C 389.600 392.670,389.742 392.400,389.916 392.400 C 390.090 392.400,390.758 391.500,391.400 390.400 C 392.042 389.300,392.710 388.400,392.884 388.400 C 393.058 388.400,393.200 388.130,393.200 387.800 C 393.200 387.470,393.342 387.200,393.516 387.200 C 393.690 387.200,394.358 386.300,395.000 385.200 C 395.642 384.100,396.310 383.200,396.484 383.200 C 396.658 383.200,396.800 383.012,396.800 382.783 C 396.800 382.554,397.115 382.027,397.500 381.612 C 398.474 380.562,399.713 378.395,399.323 378.424 C 399.145 378.436,398.640 378.661,398.200 378.923 M292.860 480.713 C 292.607 480.798,292.400 481.122,292.400 481.433 C 292.400 481.745,292.257 482.000,292.083 482.000 C 291.908 482.000,291.233 482.896,290.583 483.992 C 289.932 485.088,289.265 485.988,289.100 485.992 C 288.935 485.996,288.800 486.270,288.800 486.600 C 288.800 486.930,288.657 487.200,288.483 487.200 C 288.308 487.200,287.633 488.096,286.983 489.192 C 286.332 490.288,285.665 491.188,285.500 491.192 C 285.335 491.196,285.200 491.470,285.200 491.800 C 285.200 492.130,285.020 492.400,284.800 492.400 C 284.580 492.400,284.400 492.670,284.400 493.000 C 284.400 493.330,284.258 493.600,284.084 493.600 C 283.910 493.600,283.242 494.500,282.600 495.600 C 281.958 496.700,281.290 497.600,281.116 497.600 C 280.942 497.600,280.800 497.870,280.800 498.200 C 280.800 498.530,280.658 498.800,280.484 498.800 C 280.310 498.800,279.642 499.700,279.000 500.800 C 278.358 501.900,277.690 502.800,277.516 502.800 C 277.342 502.800,277.200 503.070,277.200 503.400 C 277.200 503.730,277.058 504.000,276.884 504.000 C 276.710 504.000,276.042 504.900,275.400 506.000 C 274.758 507.100,274.090 508.000,273.916 508.000 C 273.742 508.000,273.600 508.270,273.600 508.600 C 273.600 508.930,273.458 509.200,273.284 509.200 C 273.110 509.200,272.442 510.100,271.800 511.200 C 271.158 512.300,270.490 513.200,270.316 513.200 C 270.142 513.200,270.000 513.470,270.000 513.800 C 270.000 514.130,269.858 514.400,269.684 514.400 C 269.510 514.400,268.842 515.300,268.200 516.400 C 267.558 517.500,266.890 518.400,266.716 518.400 C 266.542 518.400,266.400 518.670,266.400 519.000 C 266.400 519.330,266.258 519.600,266.084 519.600 C 265.910 519.600,265.242 520.500,264.600 521.600 C 263.958 522.700,263.290 523.600,263.116 523.600 C 262.942 523.600,262.800 523.870,262.800 524.200 C 262.800 524.530,262.658 524.800,262.484 524.800 C 262.310 524.800,261.642 525.700,261.000 526.800 C 260.358 527.900,259.690 528.800,259.516 528.800 C 259.342 528.800,259.200 529.070,259.200 529.400 C 259.200 529.730,259.058 530.000,258.884 530.000 C 258.710 530.000,258.042 530.900,257.400 532.000 C 256.758 533.100,256.090 534.000,255.916 534.000 C 255.742 534.000,255.600 534.270,255.600 534.600 C 255.600 534.930,255.458 535.200,255.284 535.200 C 255.110 535.200,254.442 536.100,253.800 537.200 C 253.158 538.300,252.490 539.200,252.316 539.200 C 252.142 539.200,252.000 539.470,252.000 539.800 C 252.000 540.130,251.858 540.400,251.684 540.400 C 251.510 540.400,250.842 541.300,250.200 542.400 C 249.558 543.500,248.890 544.400,248.716 544.400 C 248.542 544.400,248.400 544.670,248.400 545.000 C 248.400 545.330,248.257 545.600,248.083 545.600 C 247.908 545.600,247.233 546.496,246.583 547.592 C 245.932 548.688,245.265 549.588,245.100 549.592 C 244.935 549.596,244.800 549.870,244.800 550.200 C 244.800 550.530,244.657 550.800,244.483 550.800 C 244.308 550.800,243.633 551.696,242.983 552.792 C 242.332 553.888,241.665 554.788,241.500 554.792 C 241.335 554.796,241.200 555.070,241.200 555.400 C 241.200 555.730,241.057 556.000,240.883 556.000 C 240.708 556.000,240.033 556.896,239.383 557.992 C 238.732 559.088,238.065 559.988,237.900 559.992 C 237.735 559.996,237.600 560.270,237.600 560.600 C 237.600 560.930,237.457 561.200,237.283 561.200 C 237.108 561.200,236.433 562.096,235.783 563.192 C 235.132 564.288,234.465 565.188,234.300 565.192 C 234.135 565.196,234.000 565.470,234.000 565.800 C 234.000 566.130,233.865 566.400,233.700 566.401 C 233.535 566.401,232.868 567.256,232.217 568.301 C 231.567 569.345,230.919 570.290,230.777 570.400 C 230.636 570.510,230.417 570.870,230.292 571.200 C 230.166 571.530,230.052 560.100,230.038 545.800 C 230.024 531.500,230.144 519.620,230.306 519.400 C 230.684 518.886,232.002 518.043,232.900 517.742 C 233.285 517.612,233.600 517.369,233.600 517.200 C 233.600 517.031,233.915 516.788,234.300 516.658 C 234.980 516.430,236.396 515.604,236.800 515.200 C 237.204 514.796,238.620 513.970,239.300 513.742 C 239.685 513.612,240.000 513.348,240.000 513.153 C 240.000 512.959,240.208 512.800,240.462 512.800 C 240.716 512.800,241.514 512.350,242.236 511.800 C 242.957 511.250,243.677 510.800,243.836 510.800 C 243.994 510.800,244.714 510.350,245.436 509.800 C 246.157 509.250,246.939 508.800,247.173 508.800 C 247.408 508.800,247.600 508.641,247.600 508.447 C 247.600 508.252,247.915 507.988,248.300 507.858 C 248.980 507.630,250.396 506.804,250.800 506.400 C 251.204 505.996,252.620 505.170,253.300 504.942 C 253.685 504.812,254.000 504.548,254.000 504.353 C 254.000 504.159,254.208 504.000,254.462 504.000 C 254.716 504.000,255.514 503.550,256.236 503.000 C 256.957 502.450,257.677 502.000,257.836 502.000 C 257.994 502.000,258.714 501.550,259.436 501.000 C 260.157 500.450,260.939 500.000,261.173 500.000 C 261.408 500.000,261.600 499.841,261.600 499.647 C 261.600 499.452,261.915 499.188,262.300 499.058 C 263.031 498.813,264.456 497.965,264.800 497.571 C 264.910 497.445,265.270 497.221,265.600 497.073 C 266.297 496.762,267.709 495.892,268.000 495.596 C 268.110 495.484,268.875 495.038,269.700 494.605 C 270.525 494.172,271.200 493.679,271.200 493.509 C 271.200 493.339,271.408 493.200,271.662 493.200 C 271.916 493.200,272.714 492.750,273.436 492.200 C 274.157 491.650,274.877 491.200,275.036 491.200 C 275.194 491.200,275.914 490.750,276.636 490.200 C 277.357 489.650,278.139 489.200,278.373 489.200 C 278.608 489.200,278.800 489.041,278.800 488.847 C 278.800 488.652,279.115 488.388,279.500 488.258 C 280.180 488.030,281.596 487.204,282.000 486.800 C 282.404 486.396,283.820 485.570,284.500 485.342 C 284.885 485.212,285.200 484.948,285.200 484.753 C 285.200 484.559,285.408 484.400,285.662 484.400 C 285.916 484.400,286.714 483.950,287.436 483.400 C 288.157 482.850,288.877 482.400,289.036 482.400 C 289.194 482.400,289.914 481.950,290.636 481.400 C 291.357 480.850,292.139 480.400,292.373 480.400 C 292.608 480.400,292.814 480.175,292.832 479.900 C 292.852 479.575,292.943 479.603,293.092 479.980 C 293.217 480.299,293.113 480.629,292.860 480.713 " stroke="none" fill="#5b9ceb" fill-rule="evenodd"></path><path id="path3" d="M0.597 378.400 C 0.798 378.730,36.956 431.020,80.948 494.600 C 124.941 558.180,169.650 622.800,180.302 638.200 C 190.954 653.600,199.789 666.326,199.935 666.480 C 200.081 666.634,200.200 630.004,200.200 585.080 L 200.200 503.400 198.200 502.181 C 196.317 501.034,3.324 379.795,1.215 378.435 C 0.382 377.897,0.287 377.892,0.597 378.400 M140.400 500.705 L 170.200 519.441 170.303 545.590 C 170.360 559.972,170.335 571.663,170.248 571.570 C 169.866 571.160,106.800 479.908,106.800 479.766 C 106.800 479.569,104.835 478.344,140.400 500.705 " stroke="none" fill="#54d4e4" fill-rule="evenodd"></path><path id="path4" d="M110.800 281.030 C 78.570 299.167,51.800 314.321,51.311 314.704 C 50.465 315.366,39.737 333.510,40.050 333.748 C 40.133 333.810,44.076 336.294,48.814 339.267 L 57.429 344.672 113.706 313.036 L 169.983 281.400 169.991 264.700 C 169.996 255.515,169.865 248.012,169.700 248.026 C 169.535 248.040,143.030 262.892,110.800 281.030 " stroke="none" fill="#8cdc4c" fill-rule="evenodd"></path><path id="path5" d="M229.509 264.776 C 229.423 278.027,229.506 281.600,229.900 281.600 C 230.175 281.600,230.400 281.791,230.400 282.024 C 230.400 282.257,230.580 282.336,230.800 282.200 C 231.020 282.064,231.200 282.154,231.200 282.400 C 231.200 282.646,231.380 282.736,231.600 282.600 C 231.820 282.464,232.000 282.524,232.000 282.733 C 232.000 282.942,232.450 283.226,233.000 283.364 C 233.550 283.502,234.000 283.802,234.000 284.031 C 234.000 284.260,234.180 284.336,234.400 284.200 C 234.620 284.064,234.800 284.124,234.800 284.333 C 234.800 284.542,235.250 284.826,235.800 284.964 C 236.350 285.102,236.800 285.402,236.800 285.631 C 236.800 285.860,236.980 285.936,237.200 285.800 C 237.420 285.664,237.600 285.743,237.600 285.976 C 237.600 286.209,237.735 286.369,237.900 286.330 C 238.397 286.214,240.400 287.302,240.400 287.688 C 240.400 287.885,240.580 287.936,240.800 287.800 C 241.020 287.664,241.200 287.707,241.200 287.896 C 241.200 288.085,241.830 288.467,242.600 288.746 C 243.370 289.024,244.000 289.431,244.000 289.649 C 244.000 289.868,244.180 289.936,244.400 289.800 C 244.620 289.664,244.800 289.724,244.800 289.933 C 244.800 290.142,245.250 290.426,245.800 290.564 C 246.350 290.702,246.800 291.002,246.800 291.231 C 246.800 291.460,246.980 291.536,247.200 291.400 C 247.420 291.264,247.600 291.324,247.600 291.533 C 247.600 291.742,248.050 292.026,248.600 292.164 C 249.150 292.302,249.600 292.602,249.600 292.831 C 249.600 293.060,249.780 293.136,250.000 293.000 C 250.220 292.864,250.400 292.943,250.400 293.176 C 250.400 293.409,250.535 293.569,250.700 293.530 C 251.197 293.414,253.200 294.502,253.200 294.888 C 253.200 295.085,253.380 295.136,253.600 295.000 C 253.820 294.864,254.000 294.907,254.000 295.096 C 254.000 295.285,254.630 295.667,255.400 295.946 C 256.170 296.224,256.800 296.631,256.800 296.849 C 256.800 297.068,256.980 297.136,257.200 297.000 C 257.420 296.864,257.600 296.943,257.600 297.176 C 257.600 297.409,257.870 297.600,258.200 297.600 C 258.530 297.600,258.800 297.791,258.800 298.024 C 258.800 298.257,258.980 298.336,259.200 298.200 C 259.420 298.064,259.600 298.154,259.600 298.400 C 259.600 298.646,259.780 298.736,260.000 298.600 C 260.220 298.464,260.400 298.524,260.400 298.733 C 260.400 298.942,260.850 299.226,261.400 299.364 C 261.950 299.502,262.400 299.802,262.400 300.031 C 262.400 300.260,262.580 300.336,262.800 300.200 C 263.020 300.064,263.200 300.143,263.200 300.376 C 263.200 300.609,263.335 300.769,263.500 300.730 C 263.997 300.614,266.000 301.702,266.000 302.088 C 266.000 302.285,266.180 302.336,266.400 302.200 C 266.620 302.064,266.800 302.107,266.800 302.296 C 266.800 302.485,267.430 302.867,268.200 303.146 C 268.970 303.424,269.600 303.831,269.600 304.049 C 269.600 304.268,269.780 304.336,270.000 304.200 C 270.220 304.064,270.400 304.124,270.400 304.333 C 270.400 304.542,270.850 304.826,271.400 304.964 C 271.950 305.102,272.400 305.402,272.400 305.631 C 272.400 305.860,272.580 305.936,272.800 305.800 C 273.020 305.664,273.200 305.754,273.200 306.000 C 273.200 306.246,273.353 306.353,273.539 306.237 C 273.726 306.122,274.247 306.371,274.697 306.790 C 275.147 307.209,275.624 307.443,275.757 307.309 C 275.891 307.176,276.000 307.277,276.000 307.533 C 276.000 307.790,276.135 307.969,276.300 307.930 C 276.797 307.814,278.800 308.902,278.800 309.288 C 278.800 309.485,278.980 309.536,279.200 309.400 C 279.420 309.264,279.600 309.343,279.600 309.576 C 279.600 309.809,279.735 309.969,279.900 309.930 C 280.397 309.814,282.400 310.902,282.400 311.288 C 282.400 311.485,282.580 311.536,282.800 311.400 C 283.020 311.264,283.200 311.324,283.200 311.533 C 283.200 311.742,283.650 312.026,284.200 312.164 C 284.750 312.302,285.200 312.602,285.200 312.831 C 285.200 313.060,285.380 313.136,285.600 313.000 C 285.820 312.864,286.000 312.954,286.000 313.200 C 286.000 313.446,286.153 313.553,286.339 313.437 C 286.526 313.322,287.047 313.571,287.497 313.990 C 287.947 314.409,288.424 314.643,288.557 314.509 C 288.691 314.376,288.800 314.487,288.800 314.757 C 288.800 315.027,288.980 315.136,289.200 315.000 C 289.420 314.864,289.600 314.924,289.600 315.133 C 289.600 315.342,290.050 315.626,290.600 315.764 C 291.150 315.902,291.600 316.202,291.600 316.431 C 291.600 316.660,291.780 316.736,292.000 316.600 C 292.220 316.464,292.400 316.543,292.400 316.776 C 292.400 317.009,292.535 317.169,292.700 317.130 C 293.197 317.014,295.200 318.102,295.200 318.488 C 295.200 318.685,295.380 318.736,295.600 318.600 C 295.820 318.464,296.000 318.524,296.000 318.733 C 296.000 318.942,296.450 319.226,297.000 319.364 C 297.550 319.502,298.000 319.802,298.000 320.031 C 298.000 320.260,298.180 320.336,298.400 320.200 C 298.620 320.064,298.800 320.154,298.800 320.400 C 298.800 320.646,298.953 320.753,299.139 320.637 C 299.326 320.522,299.847 320.771,300.297 321.190 C 300.747 321.609,301.224 321.843,301.357 321.709 C 301.491 321.576,301.600 321.687,301.600 321.957 C 301.600 322.227,301.780 322.336,302.000 322.200 C 302.220 322.064,302.400 322.124,302.400 322.333 C 302.400 322.542,302.850 322.826,303.400 322.964 C 303.950 323.102,304.400 323.402,304.400 323.631 C 304.400 323.860,304.580 323.936,304.800 323.800 C 305.020 323.664,305.200 323.743,305.200 323.976 C 305.200 324.209,305.335 324.369,305.500 324.330 C 305.997 324.214,308.000 325.302,308.000 325.688 C 308.000 325.885,308.180 325.936,308.400 325.800 C 308.620 325.664,308.800 325.724,308.800 325.933 C 308.800 326.142,309.250 326.426,309.800 326.564 C 310.350 326.702,310.800 327.002,310.800 327.231 C 310.800 327.460,310.980 327.536,311.200 327.400 C 311.420 327.264,311.600 327.343,311.600 327.576 C 311.600 327.809,311.735 327.969,311.900 327.930 C 312.397 327.814,314.400 328.902,314.400 329.288 C 314.400 329.485,314.580 329.536,314.800 329.400 C 315.020 329.264,315.200 329.324,315.200 329.533 C 315.200 329.742,315.650 330.026,316.200 330.164 C 316.750 330.302,317.200 330.602,317.200 330.831 C 317.200 331.060,317.380 331.136,317.600 331.000 C 317.820 330.864,318.000 330.943,318.000 331.176 C 318.000 331.409,318.135 331.569,318.300 331.530 C 318.797 331.414,320.800 332.502,320.800 332.888 C 320.800 333.085,320.980 333.136,321.200 333.000 C 321.420 332.864,321.600 332.924,321.600 333.133 C 321.600 333.342,322.050 333.626,322.600 333.764 C 323.150 333.902,323.600 334.202,323.600 334.431 C 323.600 334.660,323.780 334.736,324.000 334.600 C 324.220 334.464,324.400 334.543,324.400 334.776 C 324.400 335.009,324.535 335.169,324.700 335.130 C 325.197 335.014,327.200 336.102,327.200 336.488 C 327.200 336.685,327.380 336.736,327.600 336.600 C 327.820 336.464,328.000 336.524,328.000 336.733 C 328.000 336.942,328.450 337.226,329.000 337.364 C 329.550 337.502,330.000 337.802,330.000 338.031 C 330.000 338.260,330.180 338.336,330.400 338.200 C 330.620 338.064,330.800 338.143,330.800 338.376 C 330.800 338.609,330.935 338.769,331.100 338.730 C 331.597 338.614,333.600 339.702,333.600 340.088 C 333.600 340.285,333.780 340.336,334.000 340.200 C 334.220 340.064,334.400 340.124,334.400 340.333 C 334.400 340.542,334.850 340.826,335.400 340.964 C 335.950 341.102,336.400 341.402,336.400 341.631 C 336.400 341.860,336.580 341.936,336.800 341.800 C 337.020 341.664,337.200 341.743,337.200 341.976 C 337.200 342.209,337.335 342.369,337.500 342.330 C 337.997 342.214,340.000 343.302,340.000 343.688 C 340.000 343.885,340.180 343.936,340.400 343.800 C 340.620 343.664,340.800 343.730,340.800 343.947 C 340.800 345.193,352.942 338.585,359.549 333.745 C 359.900 333.488,348.239 314.052,347.870 314.280 C 347.615 314.438,347.573 314.246,347.756 313.766 C 347.976 313.187,347.934 313.112,347.585 313.459 C 347.101 313.939,344.808 312.964,344.803 312.276 C 344.801 312.098,344.620 312.064,344.400 312.200 C 344.180 312.336,344.000 312.276,344.000 312.067 C 344.000 311.858,343.550 311.574,343.000 311.436 C 342.450 311.298,342.000 310.998,342.000 310.769 C 342.000 310.540,341.820 310.464,341.600 310.600 C 341.380 310.736,341.200 310.646,341.200 310.400 C 341.200 310.154,341.020 310.064,340.800 310.200 C 340.580 310.336,340.400 310.276,340.400 310.067 C 340.400 309.858,339.950 309.574,339.400 309.436 C 338.850 309.298,338.400 308.998,338.400 308.769 C 338.400 308.540,338.220 308.464,338.000 308.600 C 337.780 308.736,337.600 308.676,337.600 308.467 C 337.600 308.258,337.150 307.974,336.600 307.836 C 336.050 307.698,335.600 307.398,335.600 307.169 C 335.600 306.940,335.420 306.864,335.200 307.000 C 334.980 307.136,334.800 307.057,334.800 306.824 C 334.800 306.591,334.665 306.431,334.500 306.470 C 334.003 306.586,332.000 305.498,332.000 305.112 C 332.000 304.915,331.820 304.864,331.600 305.000 C 331.380 305.136,331.200 305.076,331.200 304.867 C 331.200 304.658,330.750 304.374,330.200 304.236 C 329.650 304.098,329.200 303.798,329.200 303.569 C 329.200 303.340,329.020 303.264,328.800 303.400 C 328.580 303.536,328.400 303.446,328.400 303.200 C 328.400 302.954,328.220 302.864,328.000 303.000 C 327.780 303.136,327.600 303.076,327.600 302.867 C 327.600 302.658,327.150 302.374,326.600 302.236 C 326.050 302.098,325.600 301.798,325.600 301.569 C 325.600 301.340,325.420 301.264,325.200 301.400 C 324.980 301.536,324.800 301.476,324.800 301.267 C 324.800 301.058,324.350 300.774,323.800 300.636 C 323.250 300.498,322.800 300.198,322.800 299.969 C 322.800 299.740,322.620 299.664,322.400 299.800 C 322.180 299.936,322.000 299.846,322.000 299.600 C 322.000 299.354,321.820 299.264,321.600 299.400 C 321.380 299.536,321.200 299.476,321.200 299.267 C 321.200 299.058,320.750 298.774,320.200 298.636 C 319.650 298.498,319.200 298.198,319.200 297.969 C 319.200 297.740,319.020 297.664,318.800 297.800 C 318.580 297.936,318.400 297.893,318.400 297.704 C 318.400 297.515,317.770 297.133,317.000 296.854 C 316.230 296.576,315.600 296.169,315.600 295.951 C 315.600 295.732,315.420 295.664,315.200 295.800 C 314.980 295.936,314.800 295.876,314.800 295.667 C 314.800 295.458,314.350 295.174,313.800 295.036 C 313.250 294.898,312.800 294.598,312.800 294.369 C 312.800 294.140,312.620 294.064,312.400 294.200 C 312.180 294.336,312.000 294.276,312.000 294.067 C 312.000 293.858,311.550 293.574,311.000 293.436 C 310.450 293.298,310.000 292.998,310.000 292.769 C 310.000 292.540,309.820 292.464,309.600 292.600 C 309.380 292.736,309.200 292.646,309.200 292.400 C 309.200 292.154,309.020 292.064,308.800 292.200 C 308.580 292.336,308.400 292.276,308.400 292.067 C 308.400 291.858,307.950 291.574,307.400 291.436 C 306.850 291.298,306.400 290.998,306.400 290.769 C 306.400 290.540,306.220 290.464,306.000 290.600 C 305.780 290.736,305.600 290.693,305.600 290.504 C 305.600 290.315,304.970 289.933,304.200 289.654 C 303.430 289.376,302.800 288.969,302.800 288.751 C 302.800 288.532,302.620 288.464,302.400 288.600 C 302.180 288.736,302.000 288.676,302.000 288.467 C 302.000 288.258,301.550 287.974,301.000 287.836 C 300.450 287.698,300.000 287.398,300.000 287.169 C 300.000 286.940,299.820 286.864,299.600 287.000 C 299.380 287.136,299.200 287.076,299.200 286.867 C 299.200 286.658,298.750 286.374,298.200 286.236 C 297.650 286.098,297.200 285.798,297.200 285.569 C 297.200 285.340,297.020 285.264,296.800 285.400 C 296.580 285.536,296.400 285.446,296.400 285.200 C 296.400 284.954,296.220 284.864,296.000 285.000 C 295.780 285.136,295.600 285.076,295.600 284.867 C 295.600 284.658,295.150 284.374,294.600 284.236 C 294.050 284.098,293.600 283.798,293.600 283.569 C 293.600 283.340,293.420 283.264,293.200 283.400 C 292.980 283.536,292.800 283.493,292.800 283.304 C 292.800 283.115,292.170 282.733,291.400 282.454 C 290.630 282.176,290.000 281.769,290.000 281.551 C 290.000 281.332,289.820 281.264,289.600 281.400 C 289.380 281.536,289.200 281.476,289.200 281.267 C 289.200 281.058,288.750 280.774,288.200 280.636 C 287.650 280.498,287.200 280.198,287.200 279.969 C 287.200 279.740,287.020 279.664,286.800 279.800 C 286.580 279.936,286.400 279.857,286.400 279.624 C 286.400 279.391,286.265 279.231,286.100 279.270 C 285.603 279.386,283.600 278.298,283.600 277.912 C 283.600 277.715,283.420 277.664,283.200 277.800 C 282.980 277.936,282.800 277.876,282.800 277.667 C 282.800 277.458,282.350 277.174,281.800 277.036 C 281.250 276.898,280.800 276.598,280.800 276.369 C 280.800 276.140,280.620 276.064,280.400 276.200 C 280.180 276.336,280.000 276.257,280.000 276.024 C 280.000 275.791,279.865 275.631,279.700 275.670 C 279.203 275.786,277.200 274.698,277.200 274.312 C 277.200 274.115,277.020 274.064,276.800 274.200 C 276.580 274.336,276.400 274.276,276.400 274.067 C 276.400 273.858,275.950 273.574,275.400 273.436 C 274.850 273.298,274.400 272.998,274.400 272.769 C 274.400 272.540,274.220 272.464,274.000 272.600 C 273.780 272.736,273.600 272.657,273.600 272.424 C 273.600 272.191,273.465 272.031,273.300 272.070 C 272.803 272.186,270.800 271.098,270.800 270.712 C 270.800 270.515,270.620 270.464,270.400 270.600 C 270.180 270.736,270.000 270.676,270.000 270.467 C 270.000 270.258,269.550 269.974,269.000 269.836 C 268.450 269.698,268.000 269.398,268.000 269.169 C 268.000 268.940,267.820 268.864,267.600 269.000 C 267.380 269.136,267.200 269.046,267.200 268.800 C 267.200 268.554,267.020 268.464,266.800 268.600 C 266.580 268.736,266.400 268.676,266.400 268.467 C 266.400 268.258,265.950 267.974,265.400 267.836 C 264.850 267.698,264.400 267.398,264.400 267.169 C 264.400 266.940,264.220 266.864,264.000 267.000 C 263.780 267.136,263.600 267.076,263.600 266.867 C 263.600 266.658,263.150 266.374,262.600 266.236 C 262.050 266.098,261.600 265.798,261.600 265.569 C 261.600 265.340,261.420 265.264,261.200 265.400 C 260.980 265.536,260.800 265.457,260.800 265.224 C 260.800 264.991,260.665 264.831,260.500 264.870 C 260.003 264.986,258.000 263.898,258.000 263.512 C 258.000 263.315,257.820 263.264,257.600 263.400 C 257.380 263.536,257.200 263.476,257.200 263.267 C 257.200 263.058,256.750 262.774,256.200 262.636 C 255.650 262.498,255.200 262.198,255.200 261.969 C 255.200 261.740,255.020 261.664,254.800 261.800 C 254.580 261.936,254.400 261.846,254.400 261.600 C 254.400 261.354,254.220 261.264,254.000 261.400 C 253.780 261.536,253.600 261.476,253.600 261.267 C 253.600 261.058,253.150 260.774,252.600 260.636 C 252.050 260.498,251.600 260.198,251.600 259.969 C 251.600 259.740,251.420 259.664,251.200 259.800 C 250.980 259.936,250.800 259.876,250.800 259.667 C 250.800 259.458,250.350 259.174,249.800 259.036 C 249.250 258.898,248.800 258.598,248.800 258.369 C 248.800 258.140,248.620 258.064,248.400 258.200 C 248.180 258.336,248.000 258.257,248.000 258.024 C 248.000 257.791,247.865 257.631,247.700 257.670 C 247.203 257.786,245.200 256.698,245.200 256.312 C 245.200 256.115,245.020 256.064,244.800 256.200 C 244.580 256.336,244.400 256.276,244.400 256.067 C 244.400 255.858,243.950 255.574,243.400 255.436 C 242.850 255.298,242.400 254.998,242.400 254.769 C 242.400 254.540,242.220 254.464,242.000 254.600 C 241.780 254.736,241.600 254.646,241.600 254.400 C 241.600 254.154,241.420 254.064,241.200 254.200 C 240.980 254.336,240.800 254.276,240.800 254.067 C 240.800 253.858,240.350 253.574,239.800 253.436 C 239.250 253.298,238.800 252.998,238.800 252.769 C 238.800 252.540,238.620 252.464,238.400 252.600 C 238.180 252.736,238.000 252.676,238.000 252.467 C 238.000 252.258,237.550 251.974,237.000 251.836 C 236.450 251.698,236.000 251.398,236.000 251.169 C 236.000 250.940,235.820 250.864,235.600 251.000 C 235.380 251.136,235.200 251.057,235.200 250.824 C 235.200 250.591,235.065 250.431,234.900 250.470 C 234.403 250.586,232.400 249.498,232.400 249.112 C 232.400 248.915,232.235 248.855,232.034 248.979 C 231.833 249.103,231.608 249.048,231.534 248.855 C 231.460 248.663,230.999 248.381,230.509 248.229 L 229.617 247.952 229.509 264.776 " stroke="none" fill="#cc74c4" fill-rule="evenodd"></path></g></svg>